<svg width="128" height="128" viewBox="0 0 128 128" fill="none" xmlns="http://www.w3.org/2000/svg">
<rect width="128" height="128" rx="64" fill="#1C1A1F"/>
<path d="M54.25 67.75L59.409 62.591C60.2877 61.7123 61.7123 61.7123 62.591 62.591L67.75 67.75M66.25 66.25L67.659 64.841C68.5377 63.9623 69.9623 63.9623 70.841 64.841L73.75 67.75M55.75 71.5H72.25C73.0784 71.5 73.75 70.8284 73.75 70V58C73.75 57.1716 73.0784 56.5 72.25 56.5H55.75C54.9216 56.5 54.25 57.1716 54.25 58V70C54.25 70.8284 54.9216 71.5 55.75 71.5ZM66.25 60.25H66.2575V60.2575H66.25V60.25ZM66.625 60.25C66.625 60.4571 66.4571 60.625 66.25 60.625C66.0429 60.625 65.875 60.4571 65.875 60.25C65.875 60.0429 66.0429 59.875 66.25 59.875C66.4571 59.875 66.625 60.0429 66.625 60.25Z" stroke="#7F7E80" stroke-width="1.5" stroke-linecap="round" stroke-linejoin="round"/>
</svg>
